HIERARCHY
ROOT Hips
{
	OFFSET 0.000000 0.000000 0.000000
	CHANNELS 6 Xposition Yposition Zposition Xrotation Yrotation Zrotation
	JOINT LeftUpLeg_virtual
	{
		OFFSET 0.000000 0.000000 0.000000
		CHANNELS 3 Xrotation Yrotation Zrotation
		JOINT LeftUpLeg
		{
			OFFSET 13.026900 -6.336304 -1.092800
			CHANNELS 3 Xrotation Yrotation Zrotation
			JOINT LeftLeg
			{
				OFFSET 0.524474 -46.096886 9.782700
				CHANNELS 3 Xrotation Yrotation Zrotation
				JOINT LeftFoot
				{
					OFFSET -0.524474 -53.427422 -12.948200
					CHANNELS 3 Xrotation Yrotation Zrotation
					JOINT LeftToeBase
					{
						OFFSET 0.192200 -14.009700 16.364100
						CHANNELS 3 Xrotation Yrotation Zrotation
						JOINT LeftToe_End
						{
							OFFSET -1.784700 -0.561700 9.474800
							CHANNELS 3 Xrotation Yrotation Zrotation
							End Site
							{
								OFFSET 0 0 0
							}
						}
					}
				}
			}
		}
	}
	JOINT RightUpLeg_virtual
	{
		OFFSET 0.000000 0.000000 0.000000
		CHANNELS 3 Xrotation Yrotation Zrotation
		JOINT RightUpLeg
		{
			OFFSET -12.883000 -6.336304 -1.092800
			CHANNELS 3 Xrotation Yrotation Zrotation
			JOINT RightLeg
			{
				OFFSET -0.524587 -46.096825 9.782800
				CHANNELS 3 Xrotation Yrotation Zrotation
				JOINT RightFoot
				{
					OFFSET 0.524587 -53.427383 -12.948300
					CHANNELS 3 Xrotation Yrotation Zrotation
					JOINT RightToeBase
					{
						OFFSET -0.192200 -14.009700 16.364100
						CHANNELS 3 Xrotation Yrotation Zrotation
						JOINT RightToe_End
						{
							OFFSET 1.784700 -0.561700 9.474800
							CHANNELS 3 Xrotation Yrotation Zrotation
							End Site
							{
								OFFSET 0 0 0
							}
						}
					}
				}
			}
		}
	}
	JOINT Spine_virtual
	{
		OFFSET 0.000000 0.000000 0.000000
		CHANNELS 3 Xrotation Yrotation Zrotation
		JOINT Spine
		{
			OFFSET 0.072000 7.257294 -0.789700
			CHANNELS 3 Xrotation Yrotation Zrotation
			JOINT Spine1
			{
				OFFSET 0.000000 12.508769 -0.658067
				CHANNELS 3 Xrotation Yrotation Zrotation
				JOINT Spine1_split
				{
					OFFSET 0.000000 12.508769 -0.658067
					CHANNELS 3 Xrotation Yrotation Zrotation
					JOINT Spine2
					{
						OFFSET 0.000000 12.508769 -0.658067
						CHANNELS 3 Xrotation Yrotation Zrotation
						JOINT Neck_virtual
						{
							OFFSET 0.000000 0.000000 0.000000
							CHANNELS 3 Xrotation Yrotation Zrotation
							JOINT Neck
							{
								OFFSET 0.000000 14.033295 7.520400
								CHANNELS 3 Xrotation Yrotation Zrotation
								JOINT Head
								{
									OFFSET 0.000000 8.198502 5.703100
									CHANNELS 3 Xrotation Yrotation Zrotation
									JOINT HeadTop_End
									{
										OFFSET 0.000000 17.760803 13.332701
										CHANNELS 3 Xrotation Yrotation Zrotation
										End Site
										{
											OFFSET 0 0 0
										}
									}
								}
							}
						}
						JOINT LeftShoulder_virtual
						{
							OFFSET 0.000000 0.000000 0.000000
							CHANNELS 3 Xrotation Yrotation Zrotation
							JOINT LeftShoulder
							{
								OFFSET 6.292450 5.785301 -0.669000
								CHANNELS 3 Xrotation Yrotation Zrotation
								JOINT LeftShoulder_split
								{
									OFFSET 6.292450 5.785301 -0.669000
									CHANNELS 3 Xrotation Yrotation Zrotation
									JOINT LeftArm
									{
										OFFSET 13.907140 -6.093903 1.965100
										CHANNELS 3 Xrotation Yrotation Zrotation
										JOINT LeftForeArm
										{
											OFFSET 34.140198 0.000000 0.000000
											CHANNELS 3 Xrotation Yrotation Zrotation
											JOINT LeftHand
											{
												OFFSET 40.960209 0.000000 0.000000
												CHANNELS 3 Xrotation Yrotation Zrotation
												End Site
												{
													OFFSET 0 0 0
												}
											}
										}
									}
								}
							}
						}
						JOINT RightShoulder_virtual
						{
							OFFSET 0.000000 0.000000 0.000000
							CHANNELS 3 Xrotation Yrotation Zrotation
							JOINT RightShoulder
							{
								OFFSET -6.292450 5.785301 -0.669000
								CHANNELS 3 Xrotation Yrotation Zrotation
								JOINT RightShoulder_split
								{
									OFFSET -6.292450 5.785301 -0.669000
									CHANNELS 3 Xrotation Yrotation Zrotation
									JOINT RightArm
									{
										OFFSET -13.907140 -6.093903 1.965100
										CHANNELS 3 Xrotation Yrotation Zrotation
										JOINT RightForeArm
										{
											OFFSET -34.140198 0.000000 0.000000
											CHANNELS 3 Xrotation Yrotation Zrotation
											JOINT RightHand
											{
												OFFSET -40.960209 0.000000 0.000000
												CHANNELS 3 Xrotation Yrotation Zrotation
												End Site
												{
													OFFSET 0 0 0
												}
											}
										}
									}
								}
							}
						}
					}
				}
			}
		}
	}
}
MOTION
Frames: 9
Frame Time: 0.03333333
3.166224 159.341965 2.725834 0.000000 0.000000 0.000000 7.289022 -11.084170 6.948816 -87.621922 -4.865669 16.676530 60.731686 0.160368 -10.775112 16.798063 -17.047059 8.284303 0.389642 -0.955793 -0.121887 0.000000 0.000000 0.000000 5.924095 -3.070136 6.337398 -102.622575 -0.684335 5.122778 108.748715 -4.182391 -8.841136 40.886161 14.002608 7.952757 8.754767 0.188027 -0.744269 0.000000 0.000000 0.000000 1.381539 -8.018370 9.286534 29.992467 -8.735856 -11.746718 0.628060 -3.570659 -1.957888 3.083528 -0.951280 0.703416 0.000000 0.000000 0.000000 3.108548 -1.928752 -1.106318 -22.041517 4.866786 5.911168 20.352482 1.982848 -18.105638 0.000000 0.000000 0.000000 2.883263 -2.205319 -1.009437 12.898941 -38.937740 32.474848 -4.285507 -1.008316 0.928466 -65.181431 13.781729 19.409145 -48.721023 -70.217077 -32.738958 0.000000 0.000000 0.000000 3.239086 -2.264645 -0.891869 1.513791 8.092361 -16.356910 6.163322 2.538701 -2.869469 -86.719306 -9.721116 -16.235162 -63.615337 67.529992 60.213227 0.000000 0.000000 0.000000 
1.650652 158.433090 9.386627 0.000000 0.000000 0.000000 5.286286 -11.636173 7.146530 -86.701342 -4.187270 17.787191 57.810393 -0.198063 -10.877105 17.754638 -15.741359 9.702810 -0.592078 -0.753305 -0.077941 0.000000 0.000000 0.000000 4.653785 -6.045210 6.895472 -100.089722 -1.106327 1.937356 105.590217 -4.527667 -7.740344 40.230726 12.277342 8.714823 7.007734 0.029814 -0.680967 0.000000 0.000000 0.000000 -0.297223 -8.194381 8.533945 29.938550 -8.466659 -11.446005 0.267678 -3.260623 -2.281280 1.891103 -2.344573 0.904279 0.000000 0.000000 0.000000 3.061346 -1.748724 -1.473807 -21.963324 3.852794 7.093217 19.722234 2.911524 -18.955539 0.000000 0.000000 0.000000 2.611312 -1.996520 -1.418457 10.952776 -37.914247 29.796509 -3.635196 -2.175545 1.582213 -63.530684 12.559174 17.975741 -57.354813 -71.754989 -41.403073 0.000000 0.000000 0.000000 3.112356 -2.018502 -1.313448 1.023805 8.229913 -16.609564 7.072199 1.392460 -0.973577 -85.664649 -9.994240 -13.665963 -64.863738 67.206097 61.512192 0.000000 0.000000 0.000000 
-0.005520 156.728088 18.714912 0.000000 0.000000 0.000000 3.223254 -13.729249 7.722032 -81.834586 -3.844725 18.736315 50.151740 0.418865 -11.016970 20.822062 -12.650704 9.895482 -1.626723 -0.416790 -0.125303 0.000000 0.000000 0.000000 2.810892 -10.697303 7.748956 -92.345387 -1.658149 -1.949874 97.337033 -4.821785 -6.645971 37.836318 8.388351 8.873687 8.714291 0.006101 0.386978 0.000000 0.000000 0.000000 -2.305142 -9.812571 7.948157 28.258335 -7.612698 -10.430045 0.380386 -2.862487 -3.266179 0.924262 -3.591030 1.495553 0.000000 0.000000 0.000000 3.673952 -1.622024 -2.486849 -21.515007 2.803982 9.532417 19.999222 4.542088 -19.819978 0.000000 0.000000 0.000000 3.015548 -1.829496 -2.472727 7.579516 -35.252929 24.815764 -2.838291 -2.906638 1.637592 -59.678983 9.256930 15.351651 -63.360209 -72.495648 -47.226684 0.000000 0.000000 0.000000 3.447680 -1.894718 -2.396995 0.671406 10.423406 -15.918080 6.971467 0.557739 0.252000 -82.943113 -11.263740 -11.350991 -69.097295 67.014428 65.591577 0.000000 0.000000 0.000000 
-1.250496 154.360931 29.262386 0.000000 0.000000 0.000000 0.920800 -16.955721 8.179819 -73.541624 -3.929508 19.372355 39.206006 2.082517 -10.868411 25.217832 -8.101110 8.700058 -1.607287 0.042710 -0.537340 0.000000 0.000000 0.000000 0.928238 -15.662146 8.481832 -79.828123 -2.951122 -5.915200 84.635463 -4.912372 -5.505699 35.334758 3.578553 8.516702 11.854042 0.176337 1.817429 0.000000 0.000000 0.000000 -4.814097 -12.822800 7.471830 25.289873 -6.379169 -8.670942 1.055194 -2.448666 -4.676822 1.272253 -4.724461 1.932750 0.000000 0.000000 0.000000 4.633868 -1.582166 -3.854141 -20.592880 1.888130 12.539128 20.912835 6.536807 -20.613127 0.000000 0.000000 0.000000 3.995635 -1.701775 -3.974423 3.629525 -31.197050 18.418027 -1.543367 -2.697842 1.755463 -54.744188 4.219759 12.056651 -63.569718 -72.251544 -47.006144 0.000000 0.000000 0.000000 4.196364 -1.858967 -3.929672 0.401315 14.184370 -14.611245 6.297053 0.444822 1.043002 -79.574436 -13.802840 -10.194550 -75.692587 66.787113 71.875228 0.000000 0.000000 0.000000 
-2.176630 151.076157 40.881523 0.000000 0.000000 0.000000 -1.380781 -21.754113 8.418328 -63.123563 -4.700514 19.493493 27.494339 4.230992 -9.911201 29.579026 -3.386051 6.309933 -0.530748 0.542537 -1.307244 0.000000 0.000000 0.000000 -0.853712 -20.637024 8.907344 -65.189689 -5.501874 -9.560097 69.346159 -4.227880 -4.532180 33.820259 0.314407 9.099962 12.642829 0.435302 2.802925 0.000000 0.000000 0.000000 -6.948491 -17.160999 6.983643 21.562262 -4.973331 -6.176771 2.173167 -1.964858 -6.203492 1.563166 -5.040772 2.007776 0.000000 0.000000 0.000000 5.780907 -1.458956 -5.303296 -19.431871 1.367475 15.211352 21.885748 8.672085 -21.294906 0.000000 0.000000 0.000000 5.225484 -1.481941 -5.602020 -0.003181 -26.418113 11.862406 -0.417916 -1.880430 2.397900 -50.229915 -1.371611 9.011647 -59.590067 -71.044226 -42.266344 0.000000 0.000000 0.000000 5.227576 -1.741592 -5.624995 0.100958 18.744054 -13.006955 5.604183 1.218052 1.983045 -76.784297 -17.452645 -10.557112 -82.761320 66.294130 78.604228 0.000000 0.000000 0.000000 
-2.770427 146.413834 53.102516 0.000000 0.000000 0.000000 -3.678743 -27.959434 8.255144 -52.158787 -6.593148 19.369614 17.425267 5.339607 -7.896577 33.440569 -0.287400 2.734317 0.009211 0.956256 -1.948106 0.000000 0.000000 0.000000 -2.576672 -25.727396 8.910021 -51.448817 -8.795589 -12.002374 54.530301 -2.764696 -3.592662 32.469179 -0.428139 10.991065 9.697973 0.569293 2.906913 0.000000 0.000000 0.000000 -8.423671 -23.312949 6.426253 17.850122 -3.553082 -3.321555 3.519089 -1.172291 -7.592209 1.399306 -4.514365 2.136387 0.000000 0.000000 0.000000 6.986266 -1.063764 -6.588099 -18.226319 1.457081 16.893588 22.262911 10.741788 -21.872124 0.000000 0.000000 0.000000 6.359549 -0.956388 -7.073866 -2.852183 -21.541302 6.002210 0.064998 -0.790626 3.283007 -47.461113 -5.993640 6.430685 -57.021131 -69.870533 -38.720486 0.000000 0.000000 0.000000 6.242158 -1.351653 -7.202160 -0.366166 23.197513 -11.357848 5.180679 2.512403 3.156573 -75.988983 -21.278192 -12.522190 -87.579213 65.547058 83.136564 0.000000 0.000000 0.000000 
-3.103908 140.165710 65.712402 0.000000 0.000000 0.000000 -5.270751 -34.273285 7.863426 -42.588019 -9.256295 19.431161 10.848405 4.881640 -5.595105 36.393225 0.144720 -1.507955 -0.841976 1.207835 -2.089610 0.000000 0.000000 0.000000 -3.849023 -30.587923 8.780636 -40.353833 -12.091698 -12.986833 42.575301 -1.108869 -2.502458 29.091767 0.378266 12.852428 5.221245 0.582061 2.032053 0.000000 0.000000 0.000000 -8.867825 -30.728625 5.968711 14.542183 -2.125523 -0.359410 4.756545 0.044827 -8.643197 0.936579 -3.217188 1.918492 0.000000 0.000000 0.000000 8.035956 -0.210130 -7.597965 -16.984010 2.127469 17.125297 21.630401 12.786627 -22.440288 0.000000 0.000000 0.000000 7.150139 0.112467 -8.176556 -4.847721 -17.088491 1.185886 0.477952 0.143833 3.598150 -46.436738 -8.096073 4.052178 -59.709664 -69.792608 -40.428105 0.000000 0.000000 0.000000 7.024600 -0.459394 -8.430309 -1.097522 26.818536 -9.768512 4.629775 3.666244 4.391914 -77.608701 -24.170521 -15.790081 -89.525024 64.907390 84.846748 0.000000 0.000000 0.000000 
-3.309896 132.248138 77.918480 0.000000 0.000000 0.000000 -5.687397 -40.927856 7.549979 -35.667210 -12.055064 19.790538 8.385711 3.628448 -3.504012 37.935301 -1.673553 -5.613121 -2.699706 1.273570 -1.761010 0.000000 0.000000 0.000000 -4.882714 -36.409153 8.593432 -33.369586 -14.608330 -12.756814 35.667968 -0.274122 -1.197537 21.906648 0.957947 12.526872 2.484105 0.638526 0.651191 0.000000 0.000000 0.000000 -7.468045 -38.850816 6.258767 11.945257 -0.820653 2.272064 5.536646 1.680505 -9.251502 0.408139 -1.959425 1.802804 0.000000 0.000000 0.000000 8.909968 1.146341 -8.302016 -15.803999 3.373490 15.969751 19.950284 14.720120 -22.883936 0.000000 0.000000 0.000000 7.478087 1.712653 -8.803821 -6.110586 -13.584114 -2.315933 0.796240 0.927486 2.930286 -46.353188 -5.974833 1.993062 -69.482517 -71.033585 -49.439129 0.000000 0.000000 0.000000 7.499024 0.960277 -9.179888 -2.112659 29.086364 -8.002177 3.916512 4.906775 5.064613 -80.632173 -24.826127 -19.181688 -89.706263 64.783634 84.844712 0.000000 0.000000 0.000000 
-3.134696 123.137131 89.668419 0.000000 0.000000 0.000000 -4.500310 -47.918152 8.104908 -31.740302 -14.565406 20.434092 10.180020 2.779357 -2.002436 37.499730 -4.031869 -9.039460 -4.363333 1.190628 -1.402940 0.000000 0.000000 0.000000 -5.391949 -43.348957 8.701783 -31.177867 -15.678358 -12.271129 35.538243 -0.858838 0.174700 11.360195 0.428751 8.961768 2.072623 0.713929 -0.631941 0.000000 0.000000 0.000000 -4.384990 -46.794022 7.985707 10.374677 0.266731 4.033256 5.722679 3.506756 -9.359056 0.647481 -1.837677 1.948861 0.000000 0.000000 0.000000 9.401319 2.861561 -8.658825 -14.749899 5.081493 13.810914 17.626271 16.250282 -23.067369 0.000000 0.000000 0.000000 7.438035 3.593695 -8.949148 -6.761528 -11.370603 -4.623262 1.081278 1.547387 2.032722 -46.393606 0.084275 0.187247 -86.613028 -72.337085 -66.202435 0.000000 0.000000 0.000000 7.661737 2.719989 -9.406802 -3.267250 29.882740 -5.788033 2.886354 6.325997 5.358851 -83.170626 -23.463949 -21.297397 -89.255205 65.317878 84.345186 0.000000 0.000000 0.000000 
